<svg version="1.1" xmlns="http://www.w3.org/2000/svg" xmlns:xlink="http://www.w3.org/1999/xlink" width="101.67px" height="101.67px" viewBox="0,0,256,256"><g fill="#b2ac88" fill-rule="nonzero" stroke="none" stroke-width="1" stroke-linecap="butt" stroke-linejoin="miter" stroke-miterlimit="10" stroke-dasharray="" stroke-dashoffset="0" font-family="none" font-weight="none" font-size="none" text-anchor="none" style="mix-blend-mode: normal"><g transform="translate(0.01259,0.01259) scale(2.51795,2.51795)"><g id="Слой_2"><g id="Слой_1-2"><g opacity="0.7"><path d="M50.83,101.67c-28.07816,0 -50.84,-22.76184 -50.84,-50.84c0,-28.07816 22.76184,-50.84 50.84,-50.84c28.07816,0 50.84,22.76184 50.84,50.84c-0.02756,28.06673 -22.77327,50.81244 -50.84,50.84zM50.83,2c-19.75485,0 -37.56431,11.90057 -45.12323,30.15205c-7.55892,18.25148 -3.37854,39.25922 10.59167,53.22658c13.97022,13.96736 34.97881,18.14343 53.22875,10.58077c18.24994,-7.56265 30.14686,-25.37456 30.14281,-45.12941c-0.03307,-26.95826 -21.88174,-48.80245 -48.84,-48.83z"></path></g><path d="M35.83,32.87l6,2.65c-2.97805,4.39416 -2.23516,10.31547 1.73609,13.83777c3.97126,3.52229 9.93891,3.55288 13.94606,0.07148c4.00715,-3.4814 4.8107,-9.39479 1.87784,-13.81924l5.29,-2.49v10l-1.61,3.45c-0.11236,0.23649 -0.08946,0.51503 0.06,0.73c0.15627,0.21644 0.40326,0.34915 0.67,0.36h3c0.26352,0.03024 0.51563,-0.11615 0.62,-0.36c0.15366,-0.21344 0.17675,-0.49433 0.06,-0.73l-1.35,-3.42v-10.74c0,-0.42 0,-0.73 -0.77,-1c-0.16,0 -14.43,-6.41 -14.43,-6.41c-0.19183,-0.11075 -0.42817,-0.11075 -0.62,0l-14.48,6.47c-0.26892,0.14777 -0.44276,0.42364 -0.46,0.73c0.01568,0.29188 0.19324,0.5505 0.46,0.67zM59.55,41.47c0,4.98713 -4.04287,9.03 -9.03,9.03c-4.98713,0 -9.03,-4.04287 -9.03,-9.03c0.01792,-1.89634 0.61452,-3.74198 1.71,-5.29l7.06,3.17c0.20072,0.07012 0.41928,0.07012 0.62,0l7,-3.12c1.11124,1.51881 1.69748,3.35828 1.67,5.24zM65,46.14l0.37,-0.77l0.31,0.77zM50.62,26.54l12.61,5.61l-12.61,5.6l-12.62,-5.6z"></path><path d="M50.83,53.89c-10.13473,0.0165 -18.34798,8.22528 -18.37,18.36c0.00539,0.42853 0.35147,0.77461 0.78,0.78h35.18c0.43078,0 0.78,-0.34922 0.78,-0.78c-0.01653,-10.137 -8.233,-18.34899 -18.37,-18.36zM34.07,71.47c0.38033,-8.99428 7.78268,-16.09023 16.785,-16.09023c9.00232,0 16.40467,7.09595 16.785,16.09023z"></path></g></g></g></g></svg>