<svg version="1.1" xmlns="http://www.w3.org/2000/svg" xmlns:xlink="http://www.w3.org/1999/xlink" width="101.67px" height="101.67px" viewBox="0,0,256,256"><g fill="#b2ac88" fill-rule="nonzero" stroke="none" stroke-width="1" stroke-linecap="butt" stroke-linejoin="miter" stroke-miterlimit="10" stroke-dasharray="" stroke-dashoffset="0" font-family="none" font-weight="none" font-size="none" text-anchor="none" style="mix-blend-mode: normal"><g transform="translate(0.01259,0.01259) scale(2.51795,2.51795)"><g id="Слой_2"><g id="Слой_1-2"><g opacity="0.7"><path d="M50.83,101.67c-28.07816,0 -50.84,-22.76184 -50.84,-50.84c0,-28.07816 22.76184,-50.84 50.84,-50.84c28.07816,0 50.84,22.76184 50.84,50.84c-0.02756,28.06673 -22.77327,50.81244 -50.84,50.84zM50.83,2c-19.75485,0 -37.56431,11.90057 -45.12323,30.15205c-7.55892,18.25148 -3.37854,39.25922 10.59167,53.22658c13.97022,13.96736 34.97881,18.14343 53.22875,10.58077c18.24994,-7.56265 30.14686,-25.37456 30.14281,-45.12941c-0.03307,-26.95826 -21.88174,-48.80245 -48.84,-48.83z"></path></g><path d="M48.93,63.25v-8h-6.7v-25.08h31.1v25.08h-16.33zM44.23,53.25h6.7v5.21l5.29,-5.21h15.11v-21.08h-27.1z"></path><path d="M44.33,76.59l-8.13,-8.62h-7.87v-25.1h14.9v2h-12.9v21.1h6.73l5.27,5.58v-5.58h16.5v-11.4h2v13.4h-16.5z"></path><path d="M50.53,40c-1.49117,0 -2.7,-1.20883 -2.7,-2.7c0,-1.49117 1.20883,-2.7 2.7,-2.7v0c1.49117,0 2.7,1.20883 2.7,2.7c0,1.49117 -1.20883,2.7 -2.7,2.7zM50.53,36.6v0c-0.18703,0.00518 -0.36536,0.08008 -0.5,0.21c-0.27456,0.2768 -0.27456,0.7232 0,1v0c0.12828,0.1321 0.30592,0.20461 0.49,0.2c0.18682,-0.00613 0.36483,-0.08089 0.5,-0.21c0.13424,-0.12683 0.20715,-0.30546 0.2,-0.49c-0.00538,-0.38435 -0.31565,-0.69462 -0.7,-0.7z"></path><path d="M58.33,40c-1.49117,0 -2.7,-1.20883 -2.7,-2.7c0,-1.49117 1.20883,-2.7 2.7,-2.7v0c1.49117,0 2.7,1.20883 2.7,2.7c0,1.49117 -1.20883,2.7 -2.7,2.7zM58.33,36.6c-0.3866,0 -0.7,0.3134 -0.7,0.7c0,0.3866 0.3134,0.7 0.7,0.7v0c0.19007,0.01047 0.37441,-0.06696 0.5,-0.21c0.13424,-0.12683 0.20715,-0.30546 0.2,-0.49c0.00003,-0.18811 -0.07566,-0.36832 -0.21,-0.5c-0.12447,-0.14117 -0.30188,-0.22445 -0.49,-0.23z"></path></g></g></g></g></svg>